<svg width="620" height="420" viewBox="1010 730 560 400" fill="none" xmlns="http://www.w3.org/2000/svg">
  <path d="M1008 1104H1628V1200H1008V1104Z" fill="#E6D5B0" opacity="0.34"/>
  <path d="M1088 1104V956H1128V1104" stroke="#16324F" stroke-width="10" stroke-linecap="round" opacity="0.26"/>
  <path d="M1500 1104V970H1540V1104" stroke="#16324F" stroke-width="10" stroke-linecap="round" opacity="0.26"/>
  <path d="M1134 968H1492" stroke="#49B7A6" stroke-width="16" stroke-linecap="round" opacity="0.34"/>
  <path d="M1102 970L1168 926H1460L1516 970" stroke="#16324F" stroke-width="10" stroke-linecap="round" stroke-linejoin="round" opacity="0.3"/>
  <path d="M1164 926L1238 872H1398L1466 926" stroke="#56A9EA" stroke-width="16" stroke-linecap="round" stroke-linejoin="round" opacity="0.42"/>
  <path d="M1228 872L1300 818H1356L1420 872" stroke="#D58B17" stroke-width="16" stroke-linecap="round" stroke-linejoin="round" opacity="0.44"/>
  <path d="M1292 818L1326 754L1360 818" stroke="#16324F" stroke-width="10" stroke-linecap="round" stroke-linejoin="round" opacity="0.3"/>
  <path d="M1058 944L1114 918" stroke="#D58B17" stroke-width="12" stroke-linecap="round" opacity="0.38"/>
  <path d="M1478 932L1536 956" stroke="#D58B17" stroke-width="12" stroke-linecap="round" opacity="0.38"/>
  <path d="M1188 986V1104" stroke="#16324F" stroke-width="10" stroke-linecap="round" opacity="0.24"/>
  <path d="M1298 986V1104" stroke="#16324F" stroke-width="10" stroke-linecap="round" opacity="0.24"/>
  <path d="M1406 986V1104" stroke="#16324F" stroke-width="10" stroke-linecap="round" opacity="0.24"/>
  <path d="M1134 992H1490" stroke="#56A9EA" stroke-width="12" stroke-linecap="round" opacity="0.28"/>
</svg>
