<svg width="1200" height="800" viewBox="0 0 1200 800" fill="none" xmlns="http://www.w3.org/2000/svg">
  <defs>
    <linearGradient id="bg" x1="0" y1="0" x2="1200" y2="800" gradientUnits="userSpaceOnUse">
      <stop stop-color="#FFF5E6"/>
      <stop offset="1" stop-color="#FFE1B8"/>
    </linearGradient>
    <linearGradient id="petal" x1="0" y1="0" x2="1" y2="1">
      <stop stop-color="#FF9AB0"/>
      <stop offset="1" stop-color="#FF6F91"/>
    </linearGradient>
    <linearGradient id="water" x1="0" y1="0" x2="0" y2="1">
      <stop stop-color="#FFD8A8"/>
      <stop offset="1" stop-color="#FFC27A"/>
    </linearGradient>
  </defs>

  <rect width="1200" height="800" fill="url(#bg)"/>
  <ellipse cx="600" cy="690" rx="500" ry="120" fill="url(#water)" opacity="0.7"/>

  <g transform="translate(600 430)">
    <ellipse cx="0" cy="180" rx="170" ry="48" fill="#F5A623" opacity="0.25"/>

    <path d="M0 150C-30 110-35 70 0 20C35 70 30 110 0 150Z" fill="url(#petal)"/>
    <path d="M-80 160C-120 125-135 90-108 48C-66 80-48 120-80 160Z" fill="url(#petal)"/>
    <path d="M80 160C120 125 135 90 108 48C66 80 48 120 80 160Z" fill="url(#petal)"/>

    <path d="M-145 172C-185 150-215 120-205 82C-154 92-120 125-145 172Z" fill="url(#petal)" opacity="0.92"/>
    <path d="M145 172C185 150 215 120 205 82C154 92 120 125 145 172Z" fill="url(#petal)" opacity="0.92"/>

    <path d="M-40 178C-72 145-82 113-56 75C-20 104-8 141-40 178Z" fill="#FF7EA2"/>
    <path d="M40 178C72 145 82 113 56 75C20 104 8 141 40 178Z" fill="#FF7EA2"/>

    <circle cx="0" cy="176" r="18" fill="#FFD166"/>
  </g>

  <text x="600" y="760" text-anchor="middle" font-family="Segoe UI, Arial, sans-serif" font-size="34" fill="#9C5A1A" opacity="0.9">
    UbonCity Default Lotus Image
  </text>
</svg>
