<svg width="1200" height="900" viewBox="0 0 1200 900" fill="none" xmlns="http://www.w3.org/2000/svg">
  <rect width="1200" height="900" rx="36" fill="#CDDCEC"/>
  <rect x="72" y="72" width="1056" height="756" rx="32" fill="url(#bg)"/>
  <path d="M178 592C286 512 390 476 492 474C612 470 724 520 818 598C886 654 960 692 1046 712" stroke="#4E95CA" stroke-width="18" stroke-linecap="round" stroke-opacity="0.66"/>
  <path d="M206 664C314 584 412 546 506 544C620 540 722 584 806 654C862 700 928 732 996 748" stroke="#16324F" stroke-width="10" stroke-linecap="round" stroke-opacity="0.28"/>
  <rect x="182" y="168" width="226" height="148" rx="24" fill="#4C89C9" fill-opacity="0.32"/>
  <rect x="450" y="132" width="170" height="184" rx="24" fill="#16324F" fill-opacity="0.22"/>
  <rect x="662" y="188" width="236" height="128" rx="24" fill="#59B8A9" fill-opacity="0.3"/>
  <circle cx="924" cy="208" r="112" fill="#F2C46B" fill-opacity="0.28"/>
  <circle cx="924" cy="208" r="76" fill="#FFF9E7" fill-opacity="0.72"/>
  <path d="M260 144V116" stroke="#16324F" stroke-opacity="0.28" stroke-width="10" stroke-linecap="round"/>
  <path d="M294 136L310 110" stroke="#D58B17" stroke-opacity="0.52" stroke-width="10" stroke-linecap="round"/>
  <path d="M226 136L210 110" stroke="#D58B17" stroke-opacity="0.52" stroke-width="10" stroke-linecap="round"/>
  <path d="M742 416C794 374 844 356 892 364C942 372 978 410 984 454C992 504 966 548 920 574C874 600 816 594 770 560C728 530 706 470 742 416Z" fill="#D8A13B" fill-opacity="0.4"/>
  <path d="M706 652H952" stroke="#F7FBFF" stroke-opacity="0.94" stroke-width="18" stroke-linecap="round"/>
  <path d="M736 702H900" stroke="#5EA6D8" stroke-opacity="0.5" stroke-width="10" stroke-linecap="round"/>
  <defs>
    <linearGradient id="bg" x1="72" y1="72" x2="1128" y2="828" gradientUnits="userSpaceOnUse">
      <stop stop-color="#F2F7FC"/>
      <stop offset="1" stop-color="#C5D9EE"/>
    </linearGradient>
  </defs>
</svg>
