<svg width="1640" height="624" viewBox="0 0 1640 624" fill="none" xmlns="http://www.w3.org/2000/svg">
  <defs>
    <linearGradient id="photoWash" x1="0" y1="0" x2="1640" y2="624" gradientUnits="userSpaceOnUse">
      <stop stop-color="#24141F" stop-opacity="0.58"/>
      <stop offset="0.28" stop-color="#5E2B4C" stop-opacity="0.34"/>
      <stop offset="0.58" stop-color="#7F4A41" stop-opacity="0.12"/>
      <stop offset="1" stop-color="#F8DCC3" stop-opacity="0.06"/>
    </linearGradient>
    <linearGradient id="panel" x1="130" y1="96" x2="824" y2="532" gradientUnits="userSpaceOnUse">
      <stop stop-color="#4F164F" stop-opacity="0.92"/>
      <stop offset="1" stop-color="#7A4052" stop-opacity="0.78"/>
    </linearGradient>
    <linearGradient id="panelEdge" x1="172" y1="0" x2="692" y2="0" gradientUnits="userSpaceOnUse">
      <stop stop-color="#FFD7A8" stop-opacity="0"/>
      <stop offset="0.3" stop-color="#F4B66C"/>
      <stop offset="0.68" stop-color="#D17F36"/>
      <stop offset="1" stop-color="#FFD7A8" stop-opacity="0"/>
    </linearGradient>
    <linearGradient id="goldLine" x1="864" y1="0" x2="1544" y2="0" gradientUnits="userSpaceOnUse">
      <stop stop-color="#FFE0AE" stop-opacity="0"/>
      <stop offset="0.24" stop-color="#F5C46D"/>
      <stop offset="0.5" stop-color="#D17F36"/>
      <stop offset="0.82" stop-color="#FFE0AE"/>
      <stop offset="1" stop-color="#FFE0AE" stop-opacity="0"/>
    </linearGradient>
    <filter id="panelShadow" x="-20%" y="-20%" width="140%" height="140%" color-interpolation-filters="sRGB">
      <feDropShadow dx="0" dy="20" stdDeviation="20" flood-color="#371220" flood-opacity="0.28"/>
    </filter>
    <filter id="softGlow" x="-40%" y="-40%" width="180%" height="180%" color-interpolation-filters="sRGB">
      <feGaussianBlur stdDeviation="18"/>
    </filter>
  </defs>

  <image href="./wat-photo-cover-source.jpg" x="0" y="0" width="1640" height="624" preserveAspectRatio="xMidYMid slice"/>
  <rect width="1640" height="624" fill="url(#photoWash)"/>
  <circle cx="1282" cy="214" r="164" fill="#FFD8A6" fill-opacity="0.14" filter="url(#softGlow)"/>

  <g opacity="0.34">
    <path d="M66 124C256 84 448 88 636 138C816 186 1010 224 1242 208C1368 198 1482 168 1572 140" stroke="url(#goldLine)" stroke-width="2.6"/>
    <path d="M104 176C284 142 464 146 648 192C828 238 1012 268 1232 250C1354 240 1454 216 1530 194" stroke="url(#goldLine)" stroke-width="1.4" stroke-dasharray="8 10"/>
    <path d="M878 456C984 424 1092 418 1208 444C1314 468 1410 470 1536 428" stroke="url(#goldLine)" stroke-width="2.1"/>
  </g>

  <g opacity="0.22">
    <circle cx="1146" cy="150" r="6" fill="#F4B264"/>
    <circle cx="1214" cy="138" r="4" fill="#F4B264"/>
    <circle cx="1278" cy="166" r="5" fill="#F4B264"/>
    <circle cx="1344" cy="152" r="4" fill="#F4B264"/>
    <circle cx="1408" cy="180" r="6" fill="#F4B264"/>
    <path d="M1146 150L1214 138L1278 166L1344 152L1408 180" stroke="#F4B264" stroke-width="1.2" stroke-dasharray="4 8"/>
  </g>

  <g filter="url(#panelShadow)">
    <rect x="130" y="96" width="714" height="436" rx="38" fill="url(#panel)"/>
    <rect x="130" y="96" width="714" height="436" rx="38" stroke="#F6D0B7" stroke-opacity="0.42" stroke-width="2"/>
  </g>

  <g opacity="0.12">
    <path d="M168 140H806" stroke="#FFE7CF" stroke-width="1"/>
    <path d="M168 196H806" stroke="#FFE7CF" stroke-width="1"/>
    <path d="M168 252H806" stroke="#FFE7CF" stroke-width="1"/>
    <path d="M168 308H806" stroke="#FFE7CF" stroke-width="1"/>
    <path d="M168 364H806" stroke="#FFE7CF" stroke-width="1"/>
    <path d="M168 420H806" stroke="#FFE7CF" stroke-width="1"/>
    <path d="M216 124V504" stroke="#FFE7CF" stroke-width="1"/>
    <path d="M328 124V504" stroke="#FFE7CF" stroke-width="1"/>
    <path d="M440 124V504" stroke="#FFE7CF" stroke-width="1"/>
    <path d="M552 124V504" stroke="#FFE7CF" stroke-width="1"/>
    <path d="M664 124V504" stroke="#FFE7CF" stroke-width="1"/>
    <path d="M776 124V504" stroke="#FFE7CF" stroke-width="1"/>
  </g>

  <g>
    <rect x="184" y="148" width="188" height="28" rx="14" fill="#FFE8D8" fill-opacity="0.16"/>
    <circle cx="202" cy="162" r="4" fill="#F4B264"/>
    <path d="M214 162H354" stroke="url(#panelEdge)" stroke-width="1.4" stroke-linecap="round"/>
    <text x="184" y="220" fill="#FFF8F3" font-family="'Segoe UI', 'Noto Sans Thai', sans-serif" font-size="70" font-weight="700" letter-spacing="-0.04em">UbonCity.com</text>
    <text x="184" y="292" fill="#F8D7B7" font-family="'Segoe UI', 'Noto Sans', sans-serif" font-size="34" font-weight="600" letter-spacing="0.02em">Everything Ubon, More Connected</text>
    <text x="184" y="352" fill="#FFF0E8" font-family="'Segoe UI', 'Noto Sans Thai', sans-serif" font-size="26" font-weight="500">&#x0E40;&#x0E1B;&#x0E34;&#x0E14;&#x0E21;&#x0E38;&#x0E21;&#x0E43;&#x0E2B;&#x0E21;&#x0E48;&#x0E02;&#x0E2D;&#x0E07;&#x0E2D;&#x0E38;&#x0E1A;&#x0E25; &#x0E43;&#x0E2B;&#x0E49;&#x0E0A;&#x0E31;&#x0E14;&#x0E01;&#x0E27;&#x0E48;&#x0E32;&#x0E40;&#x0E14;&#x0E34;&#x0E21;</text>
    <rect x="184" y="386" width="372" height="2" rx="1" fill="#D17F36"/>
    <text x="184" y="436" fill="#FFD7B0" font-family="'Segoe UI', 'Noto Sans', sans-serif" font-size="21" font-weight="600" letter-spacing="0.18em">THAI  &#8226;  LAO  &#8226;  ENGLISH  &#8226;  CHINESE</text>
    <text x="184" y="478" fill="#F7DED1" font-family="'Segoe UI', 'Noto Sans Thai', sans-serif" font-size="16" font-weight="400" opacity="0.86">Multi-language city guide for local life, travel, and urban discovery</text>
  </g>

  <g opacity="0.26">
    <rect x="1252" y="112" width="232" height="36" rx="18" fill="#FFFDF8"/>
    <text x="1278" y="136" fill="#8E5B48" font-family="'Segoe UI', 'Noto Sans', sans-serif" font-size="14" font-weight="700" letter-spacing="0.15em">TEMPLE HERITAGE</text>
  </g>

  <g opacity="0.42">
    <path d="M1136 516C1160 498 1184 490 1212 492C1234 468 1264 458 1296 466C1320 442 1358 438 1406 452C1442 462 1470 484 1498 516H1136Z" fill="#4B0150"/>
    <path d="M1148 516C1170 498 1196 492 1228 496C1250 474 1278 466 1308 472C1334 452 1366 448 1404 460C1444 470 1470 488 1490 516H1148Z" fill="#7C3848" fill-opacity="0.74"/>
  </g>
</svg>
